<svg width="32" height="32" viewBox="0 0 32 32" fill="none" xmlns="http://www.w3.org/2000/svg">
<path d="M16 2C8.26875 2 2 8.26875 2 16C2 23.7313 8.26875 30 16 30C23.7313 30 30 23.7313 30 16C30 8.26875 23.7313 2 16 2ZM16 27.625C9.58125 27.625 4.375 22.4188 4.375 16C4.375 9.58125 9.58125 4.375 16 4.375C22.4188 4.375 27.625 9.58125 27.625 16C27.625 22.4188 22.4188 27.625 16 27.625ZM16.175 10.9781C17.8312 10.9781 18.9562 12.0344 19.0812 13.5844C19.0906 13.7156 19.2 13.8156 19.3312 13.8156H21.1031C21.1844 13.8156 21.25 13.75 21.25 13.6687C21.25 10.9594 19.1125 9.0625 16.1656 9.0625C12.7312 9.0625 10.75 11.3812 10.75 15.2125V16.8469C10.75 20.65 12.7312 22.9375 16.1656 22.9375C19.1031 22.9375 21.25 21.1 21.25 18.5187C21.25 18.4375 21.1844 18.3719 21.1031 18.3719H19.3281C19.1969 18.3719 19.0906 18.4719 19.0781 18.6C18.9469 20.0406 17.825 21.0312 16.1719 21.0312C14.1313 21.0312 12.9812 19.5344 12.9812 16.8563V15.2125C12.9844 12.4937 14.1375 10.9781 16.175 10.9781Z" fill="black"/>
</svg>
