<svg width="16" height="16" viewBox="0 0 16 16" fill="none" xmlns="http://www.w3.org/2000/svg">
<path d="M15.5 9.376C15.5 8.90675 15.2768 8.4345 14.8468 8.184C14.9445 7.69675 15.0162 7.133 15.0162 6.5005C15.016 3.75025 13.0512 0.5 8 0.5C2.94825 0.5 0.984 3.75025 0.984 6.5005C0.984 7.13275 1.05575 7.69625 1.1535 8.1835C0.72275 8.434 0.5 8.90675 0.5 9.376C0.5 9.9015 0.78125 10.4288 1.31925 10.6455C0.7325 11.751 0.48475 13.3387 1.09775 14.459C1.363 14.9437 3.7725 16.4888 4.57275 14.5445C5.48775 14.9785 6.625 15.2515 8 15.2515C9.375 15.2515 10.5118 14.9785 11.4268 14.5445C12.2275 16.4888 14.6368 14.944 14.9023 14.459C15.5145 13.339 15.267 11.7515 14.68 10.6455C15.2183 10.4288 15.5 9.90175 15.5 9.376ZM8.0025 1.5C11.7022 1.5 14.1695 3.50025 14.1695 6.0005C14.1695 6.0005 13.4292 2.25025 8.0025 2.25025C2.57575 2.25025 1.5885 6.0005 1.5885 6.0005C1.5885 3.50025 4.30225 1.5 8.0025 1.5ZM13.8877 10.251V10.501C13.8877 12.2663 12.061 14.7515 8 14.7515C3.9385 14.7515 2.11175 12.2663 2.11175 10.501V10.251H1.87C1.25775 10.251 0.98375 9.8115 0.98375 9.376C0.98375 8.9405 1.25775 8.501 1.87 8.501H1.916L1.959 8.4835C1.982 8.47425 4.0655 7.59175 4.043 5.00425C6.41175 7.29775 12.5772 7.685 13.8877 7.74225V8.50125H14.13C14.7418 8.50125 15.0162 8.94075 15.0162 9.37625C15.0162 9.81175 14.7418 10.2513 14.13 10.2513H13.8877V10.251Z" fill="black"/>
<path d="M11.125 10.376C11.8154 10.376 12.375 9.81633 12.375 9.12598C12.375 8.43562 11.8154 7.87598 11.125 7.87598C10.4346 7.87598 9.875 8.43562 9.875 9.12598C9.875 9.81633 10.4346 10.376 11.125 10.376Z" fill="black"/>
<path d="M4.875 10.376C5.56536 10.376 6.125 9.81633 6.125 9.12598C6.125 8.43562 5.56536 7.87598 4.875 7.87598C4.18464 7.87598 3.625 8.43562 3.625 9.12598C3.625 9.81633 4.18464 10.376 4.875 10.376Z" fill="black"/>
<path d="M10.0225 12.0327C8.71876 12.9327 7.27251 12.9272 5.97701 12.0327C5.82176 11.9247 5.68101 12.1112 5.78651 12.2842C6.18051 12.9272 6.97851 13.501 7.99951 13.501C9.02101 13.501 9.81876 12.9272 10.213 12.2842C10.3193 12.1112 10.1788 11.9247 10.0225 12.0327Z" fill="black"/>
</svg>
