<svg width="64" height="64" viewBox="0 0 64 64" fill="none" xmlns="http://www.w3.org/2000/svg">
<path d="M62 37.504C62 35.627 61.107 33.738 59.387 32.736C59.778 30.787 60.065 28.532 60.065 26.002C60.064 15.001 52.205 2 32 2C11.793 2 3.936 15.001 3.936 26.002C3.936 28.531 4.223 30.785 4.614 32.734C2.891 33.736 2 35.627 2 37.504C2 39.606 3.125 41.715 5.277 42.582C2.93 47.004 1.939 53.355 4.391 57.836C5.452 59.775 15.09 65.955 18.291 58.178C21.951 59.914 26.5 61.006 32 61.006C37.5 61.006 42.047 59.914 45.707 58.178C48.91 65.955 58.547 59.776 59.609 57.836C62.058 53.356 61.068 47.006 58.72 42.582C60.873 41.715 62 39.607 62 37.504ZM32.01 6C46.809 6 56.678 14.001 56.678 24.002C56.678 24.002 53.717 9.001 32.01 9.001C10.303 9.001 6.354 24.002 6.354 24.002C6.354 14.001 17.209 6 32.01 6ZM55.551 41.004V42.004C55.551 49.065 48.244 59.006 32 59.006C15.754 59.006 8.447 49.065 8.447 42.004V41.004H7.48C5.031 41.004 3.935 39.246 3.935 37.504C3.935 35.762 5.031 34.004 7.48 34.004H7.664L7.836 33.934C7.928 33.897 16.262 30.367 16.172 20.017C25.647 29.191 50.309 30.74 55.551 30.969V34.005H56.52C58.967 34.005 60.065 35.763 60.065 37.505C60.065 39.247 58.967 41.005 56.52 41.005H55.551V41.004Z" fill="black"/>
<path d="M44.5 41.504C47.2614 41.504 49.5 39.2655 49.5 36.504C49.5 33.7426 47.2614 31.504 44.5 31.504C41.7386 31.504 39.5 33.7426 39.5 36.504C39.5 39.2655 41.7386 41.504 44.5 41.504Z" fill="black"/>
<path d="M19.5 41.504C22.2614 41.504 24.5 39.2655 24.5 36.504C24.5 33.7426 22.2614 31.504 19.5 31.504C16.7386 31.504 14.5 33.7426 14.5 36.504C14.5 39.2655 16.7386 41.504 19.5 41.504Z" fill="black"/>
<path d="M40.09 48.131C34.875 51.731 29.09 51.709 23.908 48.131C23.287 47.699 22.724 48.445 23.146 49.137C24.722 51.709 27.914 54.004 31.998 54.004C36.084 54.004 39.275 51.709 40.852 49.137C41.277 48.445 40.715 47.699 40.09 48.131Z" fill="black"/>
</svg>
