<svg width="54" height="24" viewBox="0 0 54 24" fill="none" xmlns="http://www.w3.org/2000/svg">
<path d="M5.808 21.192C3.936 21.192 2.584 20.728 1.752 19.8C0.92 18.872 0.504 17.376 0.504 15.312V13.296H4.56V15.864C4.56 16.888 4.888 17.4 5.544 17.4C5.912 17.4 6.168 17.296 6.312 17.088C6.456 16.864 6.528 16.496 6.528 15.984C6.528 15.312 6.448 14.76 6.288 14.328C6.128 13.88 5.92 13.512 5.664 13.224C5.424 12.92 4.984 12.456 4.344 11.832L2.568 10.056C1.192 8.712 0.504 7.224 0.504 5.592C0.504 3.832 0.904 2.496 1.704 1.584C2.52 0.655999 3.704 0.191999 5.256 0.191999C7.112 0.191999 8.448 0.687999 9.264 1.68C10.08 2.656 10.488 4.192 10.488 6.288H6.288L6.264 4.872C6.264 4.6 6.184 4.384 6.024 4.224C5.88 4.064 5.672 3.984 5.4 3.984C5.08 3.984 4.84 4.072 4.68 4.248C4.52 4.424 4.44 4.664 4.44 4.968C4.44 5.64 4.824 6.336 5.592 7.056L7.992 9.36C8.552 9.904 9.016 10.424 9.384 10.92C9.752 11.4 10.048 11.976 10.272 12.648C10.496 13.304 10.608 14.088 10.608 15C10.608 17.032 10.232 18.576 9.48 19.632C8.744 20.672 7.52 21.192 5.808 21.192ZM10.7025 21L12.6945 0.383999H19.6785L21.6465 21H17.7345L17.4465 17.664H14.9505L14.7105 21H10.7025ZM15.2625 14.376H17.1345L16.2225 3.888H16.0305L15.2625 14.376ZM22.1109 3.432H26.3109V5.664C26.4869 4.944 26.7909 4.36 27.2229 3.912C27.6549 3.464 28.2309 3.24 28.9509 3.24C30.1349 3.24 31.0069 3.608 31.5669 4.344C32.1429 5.064 32.4309 6.096 32.4309 7.44V21H28.3029V7.872C28.3029 7.488 28.2229 7.16 28.0629 6.888C27.9189 6.616 27.6869 6.48 27.3669 6.48C26.9349 6.48 26.6469 6.68 26.5029 7.08C26.3749 7.464 26.3109 7.984 26.3109 8.64V21H22.1109V3.432ZM33.0315 21.264H35.0475C35.3355 21.264 35.4795 21.144 35.4795 20.904C35.4795 20.792 35.4715 20.704 35.4555 20.64L32.7195 3.432H36.7275L37.5195 12L37.9035 16.368L38.3595 12L39.2955 3.432H43.3275L40.0635 21.912C39.9515 22.6 39.7195 23.104 39.3675 23.424C39.0315 23.76 38.4955 23.928 37.7595 23.928H33.0315V21.264ZM46.902 21.192C45.542 21.192 44.606 20.744 44.094 19.848C43.598 18.936 43.35 17.64 43.35 15.96C43.35 14.584 43.526 13.528 43.878 12.792C44.246 12.056 44.75 11.52 45.39 11.184C46.03 10.832 47.006 10.448 48.318 10.032L49.47 9.648V9.6V7.848C49.47 7.384 49.374 7.032 49.182 6.792C49.006 6.536 48.79 6.408 48.534 6.408C48.31 6.408 48.11 6.512 47.934 6.72C47.774 6.928 47.694 7.208 47.694 7.56V8.616H43.614V8.04C43.614 6.312 44.014 5.08 44.814 4.344C45.63 3.608 46.95 3.24 48.774 3.24C50.23 3.24 51.414 3.624 52.326 4.392C53.238 5.144 53.694 6.216 53.694 7.608V21H49.518V18.912C49.31 19.632 48.974 20.192 48.51 20.592C48.062 20.992 47.526 21.192 46.902 21.192ZM48.558 17.928C48.878 17.928 49.102 17.8 49.23 17.544C49.374 17.272 49.446 16.944 49.446 16.56V11.664C48.822 11.904 48.358 12.208 48.054 12.576C47.766 12.944 47.622 13.456 47.622 14.112V16.368C47.622 17.408 47.934 17.928 48.558 17.928Z" fill="black"/>
</svg>
