<svg width="32" height="32" viewBox="0 0 32 32" fill="none" xmlns="http://www.w3.org/2000/svg">
<path d="M29.6867 3.23737C29.307 2.92158 28.8489 2.71463 28.361 2.63856C27.8731 2.56248 27.3737 2.62013 26.916 2.80537L3.02133 12.452C2.51047 12.6623 2.07561 13.0229 1.77445 13.4861C1.4733 13.9492 1.32007 14.4929 1.33512 15.0452C1.35016 15.5974 1.53275 16.132 1.85868 16.5781C2.1846 17.0241 2.63844 17.3606 3.15999 17.5427L7.99333 19.224L10.6867 28.1334C10.7236 28.2522 10.777 28.3653 10.8453 28.4694C10.856 28.4854 10.8707 28.496 10.8813 28.5134C10.9599 28.6227 11.0548 28.7194 11.1627 28.8C11.1928 28.8236 11.2239 28.8459 11.256 28.8667C11.3823 28.9505 11.5221 29.0119 11.6693 29.048L11.6867 29.0494L11.6947 29.0534C11.7838 29.0713 11.8744 29.0802 11.9653 29.08L11.9893 29.076C12.1259 29.0738 12.2613 29.0504 12.3907 29.0067C12.4213 28.996 12.4467 28.98 12.476 28.9667C12.5728 28.927 12.6645 28.876 12.7493 28.8147C12.8169 28.7573 12.8844 28.7 12.952 28.6427L16.5547 24.6654L21.928 28.828C22.401 29.1964 22.9832 29.3967 23.5827 29.3974C24.211 29.3966 24.8199 29.1799 25.3074 28.7834C25.7949 28.387 26.1312 27.835 26.26 27.22L30.6107 5.86403C30.7091 5.38358 30.6751 4.88541 30.5123 4.42277C30.3496 3.96013 30.0642 3.5504 29.6867 3.23737ZM12.4933 19.648C12.3087 19.8323 12.1825 20.067 12.1307 20.3227L11.7173 22.328L10.672 18.8707L16.092 16.048L12.4933 19.648ZM23.5627 26.72L17.212 21.8C16.9463 21.595 16.613 21.4976 16.2787 21.5272C15.9444 21.5569 15.6335 21.7114 15.408 21.96L14.2533 23.2334L14.6613 21.2507L24.1053 11.8067C24.3294 11.5813 24.4656 11.2832 24.4893 10.9662C24.513 10.6492 24.4226 10.3342 24.2346 10.0779C24.0465 9.82167 23.7731 9.64102 23.4636 9.56855C23.1541 9.49608 22.8289 9.53657 22.5467 9.6827L8.99333 16.7387L4.02666 14.9214L27.9987 5.33337L23.5627 26.72Z" fill="black"/>
</svg>
