<svg width="32" height="32" viewBox="0 0 32 32" fill="none" xmlns="http://www.w3.org/2000/svg">
<path d="M0.09375 6.57143C0.09375 5.35714 0.697917 4.70238 1.90625 4.60714L6.5625 4.64286C6.875 4.64286 7.08333 4.82143 7.1875 5.17857C7.66667 6.96429 8.20312 8.50595 8.79688 9.80357C9.39062 11.1012 10.1667 12.5952 11.125 14.2857C11.2083 14.5 11.3438 14.6071 11.5312 14.6071C11.6771 14.6071 11.7917 14.5238 11.875 14.3571L11.9688 13.9643L12 7.78571C12 7.35714 11.9115 7.07143 11.7344 6.92857C11.5573 6.78571 11.2292 6.67857 10.75 6.60714C10.375 6.53571 10.1875 6.27381 10.1875 5.82143C10.1875 5.72619 10.1979 5.65476 10.2188 5.60714C10.6562 4.05952 11.9062 3.28571 13.9688 3.28571L15.7188 3.25C16.5104 3.25 17.1667 3.47619 17.6875 3.92857C18.2083 4.38095 18.4688 5.09524 18.4688 6.07143V14.1786C18.6146 14.2976 18.75 14.3571 18.875 14.3571C19.1875 14.3571 19.4583 14.1429 19.6875 13.7143C21.9792 10.0476 23.2188 7.59524 23.4062 6.35714C23.4062 6.33333 23.4271 6.27381 23.4688 6.17857C23.6146 5.82143 23.8542 5.5119 24.1875 5.25C24.5208 4.9881 24.8125 4.80952 25.0625 4.71429C25.1458 4.66667 25.2396 4.64286 25.3438 4.64286H30.1875L30.5 4.67857C30.9167 4.67857 31.2396 4.90476 31.4688 5.35714C31.5521 5.5 31.6094 5.65476 31.6406 5.82143C31.6719 5.9881 31.6927 6.15476 31.7031 6.32143C31.7135 6.4881 31.7188 6.58333 31.7188 6.60714V6.85714C31.5729 7.83333 31.2031 8.875 30.6094 9.98214C30.0156 11.0893 29.2604 12.2857 28.3438 13.5714C27.4271 14.8571 26.8542 15.7024 26.625 16.1071C26.4375 16.3929 26.3438 16.6548 26.3438 16.8929C26.3438 17.0833 26.4271 17.2976 26.5938 17.5357L31.1562 24.1071C31.4062 24.4881 31.5312 24.9048 31.5312 25.3571C31.5312 25.9048 31.3438 26.3571 30.9688 26.7143C30.5938 27.0714 30.1458 27.2738 29.625 27.3214L29.0938 27.3571H24.3438C24.3229 27.3571 24.2812 27.3631 24.2188 27.375C24.1562 27.3869 24.1146 27.3929 24.0938 27.3929C23.6354 27.3929 23.2083 27.1667 22.8125 26.7143C22.6667 26.5238 21.6875 25.119 19.875 22.5C19.7708 22.3333 19.625 22.1786 19.4375 22.0357C19.3542 22.4167 19.2448 22.9643 19.1094 23.6786C18.974 24.3929 18.875 24.9048 18.8125 25.2143L18.7188 25.8214C18.5104 26.6548 18.0729 27.1548 17.4062 27.3214L16.9688 27.3571H13.9062C12.1771 27.3571 10.4531 26.4524 8.73438 24.6429C7.01562 22.8333 5.46875 20.494 4.09375 17.625C2.71875 14.756 1.4375 11.4167 0.25 7.60714C0.145833 7.29762 0.09375 6.95238 0.09375 6.57143ZM18.875 15.8214C18.4375 15.8214 18.0417 15.6845 17.6875 15.4107C17.3333 15.1369 17.1562 14.7619 17.1562 14.2857V6.07143C17.1562 5.59524 17.0521 5.25595 16.8438 5.05357C16.6354 4.85119 16.2708 4.75 15.75 4.75L13.9688 4.82143C13.0729 4.82143 12.3958 5 11.9375 5.35714C12.8542 5.85714 13.3125 6.66667 13.3125 7.78571V14.0714C13.2708 14.6667 13.0625 15.1607 12.6875 15.5536C12.3125 15.9464 11.8958 16.1429 11.4375 16.1429C10.8125 16.1429 10.3333 15.7976 10 15.1071C8.375 12.2976 7.16667 9.63095 6.375 7.10714L6.09375 6.17857L1.9375 6.14286C1.66667 6.14286 1.51562 6.16071 1.48438 6.19643C1.45312 6.23214 1.4375 6.33333 1.4375 6.5C1.4375 6.71429 1.45833 6.94048 1.5 7.17857L2.15625 9.17857C3.90625 14.3452 5.80729 18.4167 7.85938 21.3929C9.91146 24.369 11.9271 25.8571 13.9062 25.8571H17.0312C17.1562 25.8571 17.25 25.8155 17.3125 25.7321C17.375 25.6488 17.4271 25.4881 17.4688 25.25L17.5312 24.8929L18.125 21.75C18.2917 21.3214 18.4375 21.0357 18.5625 20.8929C18.7917 20.631 19.0625 20.5 19.375 20.5C19.875 20.5 20.3854 20.8452 20.9062 21.5357L23.5625 25.3929C23.7292 25.7024 23.9062 25.8571 24.0938 25.8571H29.25C29.875 25.8571 30.1875 25.6786 30.1875 25.3214C30.1875 25.2024 30.1562 25.0833 30.0938 24.9643L25.5625 18.5C25.2083 18 25.0312 17.4643 25.0312 16.8929C25.0312 16.3214 25.1979 15.7738 25.5312 15.25C25.8021 14.7738 26.3281 13.9821 27.1094 12.875C27.8906 11.7679 28.5729 10.7321 29.1562 9.76786C29.7396 8.80357 30.125 7.92857 30.3125 7.14286L30.4062 6.67857C30.3854 6.63095 30.375 6.55357 30.375 6.44643C30.375 6.33929 30.3646 6.25 30.3438 6.17857H25.4375C25.125 6.32143 24.875 6.53571 24.6875 6.82143L24.5 7.5C23.9792 9.14286 22.6146 11.6786 20.4062 15.1071C19.9688 15.5833 19.4583 15.8214 18.875 15.8214Z" fill="black"/>
</svg>
